<?xml version="1.0" encoding="utf-8" standalone="no"?>
<!DOCTYPE svg PUBLIC "-//W3C//DTD SVG 1.1//EN"
  "http://www.w3.org/Graphics/SVG/1.1/DTD/svg11.dtd">
<svg xmlns:xlink="http://www.w3.org/1999/xlink" width="538.92pt" height="158.544pt" viewBox="0 0 538.92 158.544" xmlns="http://www.w3.org/2000/svg" version="1.1">
 <metadata>
  <rdf:RDF xmlns:dc="http://purl.org/dc/elements/1.1/" xmlns:cc="http://creativecommons.org/ns#" xmlns:rdf="http://www.w3.org/1999/02/22-rdf-syntax-ns#">
   <cc:Work>
    <dc:type rdf:resource="http://purl.org/dc/dcmitype/StillImage"/>
    <dc:date>2026-05-25T11:32:08.897319</dc:date>
    <dc:format>image/svg+xml</dc:format>
    <dc:creator>
     <cc:Agent>
      <dc:title>Matplotlib v3.10.1, https://matplotlib.org/</dc:title>
     </cc:Agent>
    </dc:creator>
   </cc:Work>
  </rdf:RDF>
 </metadata>
 <defs>
  <style type="text/css">*{stroke-linejoin: round; stroke-linecap: butt}</style>
 </defs>
 <g id="figure_1">
  <g id="patch_1">
   <path d="M 0 158.544 
L 538.92 158.544 
L 538.92 0 
L 0 0 
z
" style="fill: #ffffff"/>
  </g>
  <g id="axes_1">
   <g id="patch_2">
    <path d="M 12.01211 89.415467 
L 96.224037 89.415467 
Q 98.148881 89.415467 98.148881 87.28 
L 98.148881 48.8416 
Q 98.148881 46.706133 96.224037 46.706133 
L 12.01211 46.706133 
Q 10.087266 46.706133 10.087266 48.8416 
L 10.087266 87.28 
Q 10.087266 89.415467 12.01211 89.415467 
z
" clip-path="url(#p846f88e0e4)" style="fill: #f8fafc; stroke: #1f2937; stroke-linejoin: miter"/>
   </g>
   <g id="patch_3">
    <path d="M 117.878532 89.415467 
L 226.151009 89.415467 
Q 228.075853 89.415467 228.075853 87.28 
L 228.075853 48.8416 
Q 228.075853 46.706133 226.151009 46.706133 
L 117.878532 46.706133 
Q 115.953688 46.706133 115.953688 48.8416 
L 115.953688 87.28 
Q 115.953688 89.415467 117.878532 89.415467 
z
" clip-path="url(#p846f88e0e4)" style="fill: #f8fafc; stroke: #1f2937; stroke-linejoin: miter"/>
   </g>
   <g id="patch_4">
    <path d="M 252.617615 89.415467 
L 365.702202 89.415467 
Q 367.627046 89.415467 367.627046 87.28 
L 367.627046 48.8416 
Q 367.627046 46.706133 365.702202 46.706133 
L 252.617615 46.706133 
Q 250.692771 46.706133 250.692771 48.8416 
L 250.692771 87.28 
Q 250.692771 89.415467 252.617615 89.415467 
z
" clip-path="url(#p846f88e0e4)" style="fill: #f8fafc; stroke: #1f2937; stroke-linejoin: miter"/>
   </g>
   <g id="patch_5">
    <path d="M 392.168807 68.0608 
L 522.09578 68.0608 
Q 524.020624 68.0608 524.020624 65.925333 
L 524.020624 27.486933 
Q 524.020624 25.351467 522.09578 25.351467 
L 392.168807 25.351467 
Q 390.243963 25.351467 390.243963 27.486933 
L 390.243963 65.925333 
Q 390.243963 68.0608 392.168807 68.0608 
z
" clip-path="url(#p846f88e0e4)" style="fill: #f8fafc; stroke: #1f2937; stroke-linejoin: miter"/>
   </g>
   <g id="patch_6">
    <path d="M 392.168807 121.447467 
L 522.09578 121.447467 
Q 524.020624 121.447467 524.020624 119.312 
L 524.020624 80.8736 
Q 524.020624 78.738133 522.09578 78.738133 
L 392.168807 78.738133 
Q 390.243963 78.738133 390.243963 80.8736 
L 390.243963 119.312 
Q 390.243963 121.447467 392.168807 121.447467 
z
" clip-path="url(#p846f88e0e4)" style="fill: #f8fafc; stroke: #1f2937; stroke-linejoin: miter"/>
   </g>
   <g id="patch_7">
    <path d="M 99.664883 68.0608 
Q 107.290212 68.0608 113.5739 68.0608 
" clip-path="url(#p846f88e0e4)" style="fill: none; stroke: #334155; stroke-width: 1.2; stroke-linecap: round"/>
    <path d="M 108.3739 65.4608 
L 113.5739 68.0608 
L 108.3739 70.6608 
z
" clip-path="url(#p846f88e0e4)" style="fill: #334155; stroke: #334155; stroke-width: 1.2; stroke-linecap: round"/>
   </g>
   <g id="patch_8">
    <path d="M 229.594793 68.0608 
Q 239.624573 68.0608 248.312712 68.0608 
" clip-path="url(#p846f88e0e4)" style="fill: none; stroke: #334155; stroke-width: 1.2; stroke-linecap: round"/>
    <path d="M 243.112712 65.4608 
L 248.312712 68.0608 
L 243.112712 70.6608 
z
" clip-path="url(#p846f88e0e4)" style="fill: #334155; stroke: #334155; stroke-width: 1.2; stroke-linecap: round"/>
   </g>
   <g id="patch_9">
    <path d="M 367.33046 66.90196 
Q 378.453808 58.985412 388.484086 51.846809 
" clip-path="url(#p846f88e0e4)" style="fill: none; stroke: #334155; stroke-width: 1.2; stroke-linecap: round"/>
    <path d="M 382.73991 52.743715 
L 388.484086 51.846809 
L 385.755106 56.980293 
z
" clip-path="url(#p846f88e0e4)" style="fill: #334155; stroke: #334155; stroke-width: 1.2; stroke-linecap: round"/>
   </g>
   <g id="patch_10">
    <path d="M 366.874361 69.680191 
Q 378.454498 85.678682 389.247971 100.59036 
" clip-path="url(#p846f88e0e4)" style="fill: none; stroke: #334155; stroke-width: 1.2; stroke-linecap: round"/>
    <path d="M 388.30514 94.853543 
L 389.247971 100.59036 
L 384.092819 97.902535 
z
" clip-path="url(#p846f88e0e4)" style="fill: #334155; stroke: #334155; stroke-width: 1.2; stroke-linecap: round"/>
   </g>
   <g id="text_1">
    <!-- token distribution $p$ -->
    <g transform="translate(9.973073 70.5358) scale(0.09 -0.09)">
     <defs>
      <path id="DejaVuSans-74" d="M 1172 4494 
L 1172 3500 
L 2356 3500 
L 2356 3053 
L 1172 3053 
L 1172 1153 
Q 1172 725 1289 603 
Q 1406 481 1766 481 
L 2356 481 
L 2356 0 
L 1766 0 
Q 1100 0 847 248 
Q 594 497 594 1153 
L 594 3053 
L 172 3053 
L 172 3500 
L 594 3500 
L 594 4494 
L 1172 4494 
z
" transform="scale(0.015625)"/>
      <path id="DejaVuSans-6f" d="M 1959 3097 
Q 1497 3097 1228 2736 
Q 959 2375 959 1747 
Q 959 1119 1226 758 
Q 1494 397 1959 397 
Q 2419 397 2687 759 
Q 2956 1122 2956 1747 
Q 2956 2369 2687 2733 
Q 2419 3097 1959 3097 
z
M 1959 3584 
Q 2709 3584 3137 3096 
Q 3566 2609 3566 1747 
Q 3566 888 3137 398 
Q 2709 -91 1959 -91 
Q 1206 -91 779 398 
Q 353 888 353 1747 
Q 353 2609 779 3096 
Q 1206 3584 1959 3584 
z
" transform="scale(0.015625)"/>
      <path id="DejaVuSans-6b" d="M 581 4863 
L 1159 4863 
L 1159 1991 
L 2875 3500 
L 3609 3500 
L 1753 1863 
L 3688 0 
L 2938 0 
L 1159 1709 
L 1159 0 
L 581 0 
L 581 4863 
z
" transform="scale(0.015625)"/>
      <path id="DejaVuSans-65" d="M 3597 1894 
L 3597 1613 
L 953 1613 
Q 991 1019 1311 708 
Q 1631 397 2203 397 
Q 2534 397 2845 478 
Q 3156 559 3463 722 
L 3463 178 
Q 3153 47 2828 -22 
Q 2503 -91 2169 -91 
Q 1331 -91 842 396 
Q 353 884 353 1716 
Q 353 2575 817 3079 
Q 1281 3584 2069 3584 
Q 2775 3584 3186 3129 
Q 3597 2675 3597 1894 
z
M 3022 2063 
Q 3016 2534 2758 2815 
Q 2500 3097 2075 3097 
Q 1594 3097 1305 2825 
Q 1016 2553 972 2059 
L 3022 2063 
z
" transform="scale(0.015625)"/>
      <path id="DejaVuSans-6e" d="M 3513 2113 
L 3513 0 
L 2938 0 
L 2938 2094 
Q 2938 2591 2744 2837 
Q 2550 3084 2163 3084 
Q 1697 3084 1428 2787 
Q 1159 2491 1159 1978 
L 1159 0 
L 581 0 
L 581 3500 
L 1159 3500 
L 1159 2956 
Q 1366 3272 1645 3428 
Q 1925 3584 2291 3584 
Q 2894 3584 3203 3211 
Q 3513 2838 3513 2113 
z
" transform="scale(0.015625)"/>
      <path id="DejaVuSans-20" transform="scale(0.015625)"/>
      <path id="DejaVuSans-64" d="M 2906 2969 
L 2906 4863 
L 3481 4863 
L 3481 0 
L 2906 0 
L 2906 525 
Q 2725 213 2448 61 
Q 2172 -91 1784 -91 
Q 1150 -91 751 415 
Q 353 922 353 1747 
Q 353 2572 751 3078 
Q 1150 3584 1784 3584 
Q 2172 3584 2448 3432 
Q 2725 3281 2906 2969 
z
M 947 1747 
Q 947 1113 1208 752 
Q 1469 391 1925 391 
Q 2381 391 2643 752 
Q 2906 1113 2906 1747 
Q 2906 2381 2643 2742 
Q 2381 3103 1925 3103 
Q 1469 3103 1208 2742 
Q 947 2381 947 1747 
z
" transform="scale(0.015625)"/>
      <path id="DejaVuSans-69" d="M 603 3500 
L 1178 3500 
L 1178 0 
L 603 0 
L 603 3500 
z
M 603 4863 
L 1178 4863 
L 1178 4134 
L 603 4134 
L 603 4863 
z
" transform="scale(0.015625)"/>
      <path id="DejaVuSans-73" d="M 2834 3397 
L 2834 2853 
Q 2591 2978 2328 3040 
Q 2066 3103 1784 3103 
Q 1356 3103 1142 2972 
Q 928 2841 928 2578 
Q 928 2378 1081 2264 
Q 1234 2150 1697 2047 
L 1894 2003 
Q 2506 1872 2764 1633 
Q 3022 1394 3022 966 
Q 3022 478 2636 193 
Q 2250 -91 1575 -91 
Q 1294 -91 989 -36 
Q 684 19 347 128 
L 347 722 
Q 666 556 975 473 
Q 1284 391 1588 391 
Q 1994 391 2212 530 
Q 2431 669 2431 922 
Q 2431 1156 2273 1281 
Q 2116 1406 1581 1522 
L 1381 1569 
Q 847 1681 609 1914 
Q 372 2147 372 2553 
Q 372 3047 722 3315 
Q 1072 3584 1716 3584 
Q 2034 3584 2315 3537 
Q 2597 3491 2834 3397 
z
" transform="scale(0.015625)"/>
      <path id="DejaVuSans-72" d="M 2631 2963 
Q 2534 3019 2420 3045 
Q 2306 3072 2169 3072 
Q 1681 3072 1420 2755 
Q 1159 2438 1159 1844 
L 1159 0 
L 581 0 
L 581 3500 
L 1159 3500 
L 1159 2956 
Q 1341 3275 1631 3429 
Q 1922 3584 2338 3584 
Q 2397 3584 2469 3576 
Q 2541 3569 2628 3553 
L 2631 2963 
z
" transform="scale(0.015625)"/>
      <path id="DejaVuSans-62" d="M 3116 1747 
Q 3116 2381 2855 2742 
Q 2594 3103 2138 3103 
Q 1681 3103 1420 2742 
Q 1159 2381 1159 1747 
Q 1159 1113 1420 752 
Q 1681 391 2138 391 
Q 2594 391 2855 752 
Q 3116 1113 3116 1747 
z
M 1159 2969 
Q 1341 3281 1617 3432 
Q 1894 3584 2278 3584 
Q 2916 3584 3314 3078 
Q 3713 2572 3713 1747 
Q 3713 922 3314 415 
Q 2916 -91 2278 -91 
Q 1894 -91 1617 61 
Q 1341 213 1159 525 
L 1159 0 
L 581 0 
L 581 4863 
L 1159 4863 
L 1159 2969 
z
" transform="scale(0.015625)"/>
      <path id="DejaVuSans-75" d="M 544 1381 
L 544 3500 
L 1119 3500 
L 1119 1403 
Q 1119 906 1312 657 
Q 1506 409 1894 409 
Q 2359 409 2629 706 
Q 2900 1003 2900 1516 
L 2900 3500 
L 3475 3500 
L 3475 0 
L 2900 0 
L 2900 538 
Q 2691 219 2414 64 
Q 2138 -91 1772 -91 
Q 1169 -91 856 284 
Q 544 659 544 1381 
z
M 1991 3584 
L 1991 3584 
z
" transform="scale(0.015625)"/>
      <path id="DejaVuSans-Oblique-70" d="M 3175 2156 
Q 3175 2616 2975 2859 
Q 2775 3103 2400 3103 
Q 2144 3103 1911 2972 
Q 1678 2841 1497 2591 
Q 1319 2344 1212 1994 
Q 1106 1644 1106 1300 
Q 1106 863 1306 627 
Q 1506 391 1875 391 
Q 2147 391 2380 519 
Q 2613 647 2778 891 
Q 2956 1147 3065 1494 
Q 3175 1841 3175 2156 
z
M 1394 2969 
Q 1625 3272 1939 3428 
Q 2253 3584 2638 3584 
Q 3175 3584 3472 3232 
Q 3769 2881 3769 2247 
Q 3769 1728 3584 1258 
Q 3400 788 3053 416 
Q 2822 169 2531 39 
Q 2241 -91 1919 -91 
Q 1547 -91 1294 64 
Q 1041 219 916 525 
L 556 -1331 
L -19 -1331 
L 922 3500 
L 1497 3500 
L 1394 2969 
z
" transform="scale(0.015625)"/>
     </defs>
     <use xlink:href="#DejaVuSans-74" transform="translate(0 0.015625)"/>
     <use xlink:href="#DejaVuSans-6f" transform="translate(39.208984 0.015625)"/>
     <use xlink:href="#DejaVuSans-6b" transform="translate(100.390625 0.015625)"/>
     <use xlink:href="#DejaVuSans-65" transform="translate(158.300781 0.015625)"/>
     <use xlink:href="#DejaVuSans-6e" transform="translate(219.824219 0.015625)"/>
     <use xlink:href="#DejaVuSans-20" transform="translate(283.203125 0.015625)"/>
     <use xlink:href="#DejaVuSans-64" transform="translate(314.990234 0.015625)"/>
     <use xlink:href="#DejaVuSans-69" transform="translate(378.466797 0.015625)"/>
     <use xlink:href="#DejaVuSans-73" transform="translate(406.25 0.015625)"/>
     <use xlink:href="#DejaVuSans-74" transform="translate(458.349609 0.015625)"/>
     <use xlink:href="#DejaVuSans-72" transform="translate(497.558594 0.015625)"/>
     <use xlink:href="#DejaVuSans-69" transform="translate(538.671875 0.015625)"/>
     <use xlink:href="#DejaVuSans-62" transform="translate(566.455078 0.015625)"/>
     <use xlink:href="#DejaVuSans-75" transform="translate(629.931641 0.015625)"/>
     <use xlink:href="#DejaVuSans-74" transform="translate(693.310547 0.015625)"/>
     <use xlink:href="#DejaVuSans-69" transform="translate(732.519531 0.015625)"/>
     <use xlink:href="#DejaVuSans-6f" transform="translate(760.302734 0.015625)"/>
     <use xlink:href="#DejaVuSans-6e" transform="translate(821.484375 0.015625)"/>
     <use xlink:href="#DejaVuSans-20" transform="translate(884.863281 0.015625)"/>
     <use xlink:href="#DejaVuSans-Oblique-70" transform="translate(916.650391 0.015625)"/>
    </g>
   </g>
   <g id="text_2">
    <!-- centered surprisal $u=s-H(p)$ -->
    <g transform="translate(103.659771 70.5358) scale(0.09 -0.09)">
     <defs>
      <path id="DejaVuSans-63" d="M 3122 3366 
L 3122 2828 
Q 2878 2963 2633 3030 
Q 2388 3097 2138 3097 
Q 1578 3097 1268 2742 
Q 959 2388 959 1747 
Q 959 1106 1268 751 
Q 1578 397 2138 397 
Q 2388 397 2633 464 
Q 2878 531 3122 666 
L 3122 134 
Q 2881 22 2623 -34 
Q 2366 -91 2075 -91 
Q 1284 -91 818 406 
Q 353 903 353 1747 
Q 353 2603 823 3093 
Q 1294 3584 2113 3584 
Q 2378 3584 2631 3529 
Q 2884 3475 3122 3366 
z
" transform="scale(0.015625)"/>
      <path id="DejaVuSans-70" d="M 1159 525 
L 1159 -1331 
L 581 -1331 
L 581 3500 
L 1159 3500 
L 1159 2969 
Q 1341 3281 1617 3432 
Q 1894 3584 2278 3584 
Q 2916 3584 3314 3078 
Q 3713 2572 3713 1747 
Q 3713 922 3314 415 
Q 2916 -91 2278 -91 
Q 1894 -91 1617 61 
Q 1341 213 1159 525 
z
M 3116 1747 
Q 3116 2381 2855 2742 
Q 2594 3103 2138 3103 
Q 1681 3103 1420 2742 
Q 1159 2381 1159 1747 
Q 1159 1113 1420 752 
Q 1681 391 2138 391 
Q 2594 391 2855 752 
Q 3116 1113 3116 1747 
z
" transform="scale(0.015625)"/>
      <path id="DejaVuSans-61" d="M 2194 1759 
Q 1497 1759 1228 1600 
Q 959 1441 959 1056 
Q 959 750 1161 570 
Q 1363 391 1709 391 
Q 2188 391 2477 730 
Q 2766 1069 2766 1631 
L 2766 1759 
L 2194 1759 
z
M 3341 1997 
L 3341 0 
L 2766 0 
L 2766 531 
Q 2569 213 2275 61 
Q 1981 -91 1556 -91 
Q 1019 -91 701 211 
Q 384 513 384 1019 
Q 384 1609 779 1909 
Q 1175 2209 1959 2209 
L 2766 2209 
L 2766 2266 
Q 2766 2663 2505 2880 
Q 2244 3097 1772 3097 
Q 1472 3097 1187 3025 
Q 903 2953 641 2809 
L 641 3341 
Q 956 3463 1253 3523 
Q 1550 3584 1831 3584 
Q 2591 3584 2966 3190 
Q 3341 2797 3341 1997 
z
" transform="scale(0.015625)"/>
      <path id="DejaVuSans-6c" d="M 603 4863 
L 1178 4863 
L 1178 0 
L 603 0 
L 603 4863 
z
" transform="scale(0.015625)"/>
      <path id="DejaVuSans-Oblique-75" d="M 428 1388 
L 838 3500 
L 1416 3500 
L 1006 1409 
Q 975 1256 961 1147 
Q 947 1038 947 966 
Q 947 700 1109 554 
Q 1272 409 1569 409 
Q 2031 409 2368 721 
Q 2706 1034 2809 1563 
L 3194 3500 
L 3769 3500 
L 3091 0 
L 2516 0 
L 2631 550 
Q 2388 244 2052 76 
Q 1716 -91 1338 -91 
Q 878 -91 622 161 
Q 366 413 366 863 
Q 366 956 381 1097 
Q 397 1238 428 1388 
z
" transform="scale(0.015625)"/>
      <path id="DejaVuSans-3d" d="M 678 2906 
L 4684 2906 
L 4684 2381 
L 678 2381 
L 678 2906 
z
M 678 1631 
L 4684 1631 
L 4684 1100 
L 678 1100 
L 678 1631 
z
" transform="scale(0.015625)"/>
      <path id="DejaVuSans-Oblique-73" d="M 3200 3397 
L 3091 2853 
Q 2863 2978 2609 3040 
Q 2356 3103 2088 3103 
Q 1634 3103 1373 2948 
Q 1113 2794 1113 2528 
Q 1113 2219 1719 2053 
Q 1766 2041 1788 2034 
L 1972 1978 
Q 2547 1819 2739 1644 
Q 2931 1469 2931 1166 
Q 2931 609 2489 259 
Q 2047 -91 1331 -91 
Q 1053 -91 747 -37 
Q 441 16 72 128 
L 184 722 
Q 500 559 806 475 
Q 1113 391 1394 391 
Q 1816 391 2080 572 
Q 2344 753 2344 1031 
Q 2344 1331 1650 1516 
L 1591 1531 
L 1394 1581 
Q 956 1697 753 1886 
Q 550 2075 550 2369 
Q 550 2928 970 3256 
Q 1391 3584 2113 3584 
Q 2397 3584 2667 3537 
Q 2938 3491 3200 3397 
z
" transform="scale(0.015625)"/>
      <path id="DejaVuSans-2212" d="M 678 2272 
L 4684 2272 
L 4684 1741 
L 678 1741 
L 678 2272 
z
" transform="scale(0.015625)"/>
      <path id="DejaVuSans-Oblique-48" d="M 1081 4666 
L 1716 4666 
L 1344 2753 
L 3634 2753 
L 4006 4666 
L 4641 4666 
L 3731 0 
L 3097 0 
L 3531 2222 
L 1241 2222 
L 806 0 
L 172 0 
L 1081 4666 
z
" transform="scale(0.015625)"/>
      <path id="DejaVuSans-28" d="M 1984 4856 
Q 1566 4138 1362 3434 
Q 1159 2731 1159 2009 
Q 1159 1288 1364 580 
Q 1569 -128 1984 -844 
L 1484 -844 
Q 1016 -109 783 600 
Q 550 1309 550 2009 
Q 550 2706 781 3412 
Q 1013 4119 1484 4856 
L 1984 4856 
z
" transform="scale(0.015625)"/>
      <path id="DejaVuSans-29" d="M 513 4856 
L 1013 4856 
Q 1481 4119 1714 3412 
Q 1947 2706 1947 2009 
Q 1947 1309 1714 600 
Q 1481 -109 1013 -844 
L 513 -844 
Q 928 -128 1133 580 
Q 1338 1288 1338 2009 
Q 1338 2731 1133 3434 
Q 928 4138 513 4856 
z
" transform="scale(0.015625)"/>
     </defs>
     <use xlink:href="#DejaVuSans-63" transform="translate(0 0.015625)"/>
     <use xlink:href="#DejaVuSans-65" transform="translate(54.980469 0.015625)"/>
     <use xlink:href="#DejaVuSans-6e" transform="translate(116.503906 0.015625)"/>
     <use xlink:href="#DejaVuSans-74" transform="translate(179.882812 0.015625)"/>
     <use xlink:href="#DejaVuSans-65" transform="translate(219.091797 0.015625)"/>
     <use xlink:href="#DejaVuSans-72" transform="translate(280.615234 0.015625)"/>
     <use xlink:href="#DejaVuSans-65" transform="translate(321.728516 0.015625)"/>
     <use xlink:href="#DejaVuSans-64" transform="translate(383.251953 0.015625)"/>
     <use xlink:href="#DejaVuSans-20" transform="translate(446.728516 0.015625)"/>
     <use xlink:href="#DejaVuSans-73" transform="translate(478.515625 0.015625)"/>
     <use xlink:href="#DejaVuSans-75" transform="translate(530.615234 0.015625)"/>
     <use xlink:href="#DejaVuSans-72" transform="translate(593.994141 0.015625)"/>
     <use xlink:href="#DejaVuSans-70" transform="translate(635.107422 0.015625)"/>
     <use xlink:href="#DejaVuSans-72" transform="translate(698.583984 0.015625)"/>
     <use xlink:href="#DejaVuSans-69" transform="translate(739.697266 0.015625)"/>
     <use xlink:href="#DejaVuSans-73" transform="translate(767.480469 0.015625)"/>
     <use xlink:href="#DejaVuSans-61" transform="translate(819.580078 0.015625)"/>
     <use xlink:href="#DejaVuSans-6c" transform="translate(880.859375 0.015625)"/>
     <use xlink:href="#DejaVuSans-20" transform="translate(908.642578 0.015625)"/>
     <use xlink:href="#DejaVuSans-Oblique-75" transform="translate(940.429688 0.015625)"/>
     <use xlink:href="#DejaVuSans-3d" transform="translate(1023.291016 0.015625)"/>
     <use xlink:href="#DejaVuSans-Oblique-73" transform="translate(1126.5625 0.015625)"/>
     <use xlink:href="#DejaVuSans-2212" transform="translate(1198.144531 0.015625)"/>
     <use xlink:href="#DejaVuSans-Oblique-48" transform="translate(1301.416016 0.015625)"/>
     <use xlink:href="#DejaVuSans-28" transform="translate(1376.611328 0.015625)"/>
     <use xlink:href="#DejaVuSans-Oblique-70" transform="translate(1415.625 0.015625)"/>
     <use xlink:href="#DejaVuSans-29" transform="translate(1479.101562 0.015625)"/>
    </g>
   </g>
   <g id="text_3">
    <!-- Fisher whitening $w=F^{1/2}u$ -->
    <g transform="translate(250.434908 71.2108) scale(0.09 -0.09)">
     <defs>
      <path id="DejaVuSans-46" d="M 628 4666 
L 3309 4666 
L 3309 4134 
L 1259 4134 
L 1259 2759 
L 3109 2759 
L 3109 2228 
L 1259 2228 
L 1259 0 
L 628 0 
L 628 4666 
z
" transform="scale(0.015625)"/>
      <path id="DejaVuSans-68" d="M 3513 2113 
L 3513 0 
L 2938 0 
L 2938 2094 
Q 2938 2591 2744 2837 
Q 2550 3084 2163 3084 
Q 1697 3084 1428 2787 
Q 1159 2491 1159 1978 
L 1159 0 
L 581 0 
L 581 4863 
L 1159 4863 
L 1159 2956 
Q 1366 3272 1645 3428 
Q 1925 3584 2291 3584 
Q 2894 3584 3203 3211 
Q 3513 2838 3513 2113 
z
" transform="scale(0.015625)"/>
      <path id="DejaVuSans-77" d="M 269 3500 
L 844 3500 
L 1563 769 
L 2278 3500 
L 2956 3500 
L 3675 769 
L 4391 3500 
L 4966 3500 
L 4050 0 
L 3372 0 
L 2619 2869 
L 1863 0 
L 1184 0 
L 269 3500 
z
" transform="scale(0.015625)"/>
      <path id="DejaVuSans-67" d="M 2906 1791 
Q 2906 2416 2648 2759 
Q 2391 3103 1925 3103 
Q 1463 3103 1205 2759 
Q 947 2416 947 1791 
Q 947 1169 1205 825 
Q 1463 481 1925 481 
Q 2391 481 2648 825 
Q 2906 1169 2906 1791 
z
M 3481 434 
Q 3481 -459 3084 -895 
Q 2688 -1331 1869 -1331 
Q 1566 -1331 1297 -1286 
Q 1028 -1241 775 -1147 
L 775 -588 
Q 1028 -725 1275 -790 
Q 1522 -856 1778 -856 
Q 2344 -856 2625 -561 
Q 2906 -266 2906 331 
L 2906 616 
Q 2728 306 2450 153 
Q 2172 0 1784 0 
Q 1141 0 747 490 
Q 353 981 353 1791 
Q 353 2603 747 3093 
Q 1141 3584 1784 3584 
Q 2172 3584 2450 3431 
Q 2728 3278 2906 2969 
L 2906 3500 
L 3481 3500 
L 3481 434 
z
" transform="scale(0.015625)"/>
      <path id="DejaVuSans-Oblique-77" d="M 544 3500 
L 1113 3500 
L 1259 684 
L 2566 3500 
L 3231 3500 
L 3425 684 
L 4666 3500 
L 5241 3500 
L 3641 0 
L 2969 0 
L 2797 2900 
L 1459 0 
L 781 0 
L 544 3500 
z
" transform="scale(0.015625)"/>
      <path id="DejaVuSans-Oblique-46" d="M 1081 4666 
L 3756 4666 
L 3653 4134 
L 1606 4134 
L 1338 2759 
L 3188 2759 
L 3084 2228 
L 1234 2228 
L 800 0 
L 172 0 
L 1081 4666 
z
" transform="scale(0.015625)"/>
      <path id="DejaVuSans-31" d="M 794 531 
L 1825 531 
L 1825 4091 
L 703 3866 
L 703 4441 
L 1819 4666 
L 2450 4666 
L 2450 531 
L 3481 531 
L 3481 0 
L 794 0 
L 794 531 
z
" transform="scale(0.015625)"/>
      <path id="DejaVuSans-2f" d="M 1625 4666 
L 2156 4666 
L 531 -594 
L 0 -594 
L 1625 4666 
z
" transform="scale(0.015625)"/>
      <path id="DejaVuSans-32" d="M 1228 531 
L 3431 531 
L 3431 0 
L 469 0 
L 469 531 
Q 828 903 1448 1529 
Q 2069 2156 2228 2338 
Q 2531 2678 2651 2914 
Q 2772 3150 2772 3378 
Q 2772 3750 2511 3984 
Q 2250 4219 1831 4219 
Q 1534 4219 1204 4116 
Q 875 4013 500 3803 
L 500 4441 
Q 881 4594 1212 4672 
Q 1544 4750 1819 4750 
Q 2544 4750 2975 4387 
Q 3406 4025 3406 3419 
Q 3406 3131 3298 2873 
Q 3191 2616 2906 2266 
Q 2828 2175 2409 1742 
Q 1991 1309 1228 531 
z
" transform="scale(0.015625)"/>
     </defs>
     <use xlink:href="#DejaVuSans-46" transform="translate(0 0.765625)"/>
     <use xlink:href="#DejaVuSans-69" transform="translate(57.519531 0.765625)"/>
     <use xlink:href="#DejaVuSans-73" transform="translate(85.302734 0.765625)"/>
     <use xlink:href="#DejaVuSans-68" transform="translate(137.402344 0.765625)"/>
     <use xlink:href="#DejaVuSans-65" transform="translate(200.78125 0.765625)"/>
     <use xlink:href="#DejaVuSans-72" transform="translate(262.304688 0.765625)"/>
     <use xlink:href="#DejaVuSans-20" transform="translate(303.417969 0.765625)"/>
     <use xlink:href="#DejaVuSans-77" transform="translate(335.205078 0.765625)"/>
     <use xlink:href="#DejaVuSans-68" transform="translate(416.992188 0.765625)"/>
     <use xlink:href="#DejaVuSans-69" transform="translate(480.371094 0.765625)"/>
     <use xlink:href="#DejaVuSans-74" transform="translate(508.154297 0.765625)"/>
     <use xlink:href="#DejaVuSans-65" transform="translate(547.363281 0.765625)"/>
     <use xlink:href="#DejaVuSans-6e" transform="translate(608.886719 0.765625)"/>
     <use xlink:href="#DejaVuSans-69" transform="translate(672.265625 0.765625)"/>
     <use xlink:href="#DejaVuSans-6e" transform="translate(700.048828 0.765625)"/>
     <use xlink:href="#DejaVuSans-67" transform="translate(763.427734 0.765625)"/>
     <use xlink:href="#DejaVuSans-20" transform="translate(826.904297 0.765625)"/>
     <use xlink:href="#DejaVuSans-Oblique-77" transform="translate(858.691406 0.765625)"/>
     <use xlink:href="#DejaVuSans-3d" transform="translate(959.960938 0.765625)"/>
     <use xlink:href="#DejaVuSans-Oblique-46" transform="translate(1063.232422 0.765625)"/>
     <use xlink:href="#DejaVuSans-31" transform="translate(1127.768724 39.046875) scale(0.7)"/>
     <use xlink:href="#DejaVuSans-2f" transform="translate(1172.304857 39.046875) scale(0.7)"/>
     <use xlink:href="#DejaVuSans-32" transform="translate(1193.351341 39.046875) scale(0.7)"/>
     <use xlink:href="#DejaVuSans-Oblique-75" transform="translate(1240.621849 0.765625)"/>
    </g>
   </g>
   <g id="text_4">
    <!-- projection onto $\mathrm{Im}(F^{1/2}JB)$ -->
    <g transform="translate(400.117294 49.856133) scale(0.09 -0.09)">
     <defs>
      <path id="DejaVuSans-6a" d="M 603 3500 
L 1178 3500 
L 1178 -63 
Q 1178 -731 923 -1031 
Q 669 -1331 103 -1331 
L -116 -1331 
L -116 -844 
L 38 -844 
Q 366 -844 484 -692 
Q 603 -541 603 -63 
L 603 3500 
z
M 603 4863 
L 1178 4863 
L 1178 4134 
L 603 4134 
L 603 4863 
z
" transform="scale(0.015625)"/>
      <path id="DejaVuSans-49" d="M 628 4666 
L 1259 4666 
L 1259 0 
L 628 0 
L 628 4666 
z
" transform="scale(0.015625)"/>
      <path id="DejaVuSans-6d" d="M 3328 2828 
Q 3544 3216 3844 3400 
Q 4144 3584 4550 3584 
Q 5097 3584 5394 3201 
Q 5691 2819 5691 2113 
L 5691 0 
L 5113 0 
L 5113 2094 
Q 5113 2597 4934 2840 
Q 4756 3084 4391 3084 
Q 3944 3084 3684 2787 
Q 3425 2491 3425 1978 
L 3425 0 
L 2847 0 
L 2847 2094 
Q 2847 2600 2669 2842 
Q 2491 3084 2119 3084 
Q 1678 3084 1418 2786 
Q 1159 2488 1159 1978 
L 1159 0 
L 581 0 
L 581 3500 
L 1159 3500 
L 1159 2956 
Q 1356 3278 1631 3431 
Q 1906 3584 2284 3584 
Q 2666 3584 2933 3390 
Q 3200 3197 3328 2828 
z
" transform="scale(0.015625)"/>
      <path id="DejaVuSans-Oblique-4a" d="M 1069 4666 
L 1703 4666 
L 856 325 
Q 691 -522 298 -901 
Q -94 -1281 -800 -1281 
L -1050 -1281 
L -947 -750 
L -750 -750 
Q -328 -750 -109 -509 
Q 109 -269 225 325 
L 1069 4666 
z
" transform="scale(0.015625)"/>
      <path id="DejaVuSans-Oblique-42" d="M 1081 4666 
L 2694 4666 
Q 3350 4666 3675 4422 
Q 4000 4178 4000 3688 
Q 4000 3238 3720 2911 
Q 3441 2584 2988 2516 
Q 3375 2428 3569 2181 
Q 3763 1934 3763 1522 
Q 3763 819 3242 409 
Q 2722 0 1819 0 
L 172 0 
L 1081 4666 
z
M 1234 2228 
L 903 519 
L 1919 519 
Q 2491 519 2800 781 
Q 3109 1044 3109 1522 
Q 3109 1891 2904 2059 
Q 2700 2228 2247 2228 
L 1234 2228 
z
M 1606 4147 
L 1331 2741 
L 2272 2741 
Q 2775 2741 3058 2959 
Q 3341 3178 3341 3566 
Q 3341 3869 3150 4008 
Q 2959 4147 2541 4147 
L 1606 4147 
z
" transform="scale(0.015625)"/>
     </defs>
     <use xlink:href="#DejaVuSans-70" transform="translate(0 0.765625)"/>
     <use xlink:href="#DejaVuSans-72" transform="translate(63.476562 0.765625)"/>
     <use xlink:href="#DejaVuSans-6f" transform="translate(104.589844 0.765625)"/>
     <use xlink:href="#DejaVuSans-6a" transform="translate(165.771484 0.765625)"/>
     <use xlink:href="#DejaVuSans-65" transform="translate(193.554688 0.765625)"/>
     <use xlink:href="#DejaVuSans-63" transform="translate(255.078125 0.765625)"/>
     <use xlink:href="#DejaVuSans-74" transform="translate(310.058594 0.765625)"/>
     <use xlink:href="#DejaVuSans-69" transform="translate(349.267578 0.765625)"/>
     <use xlink:href="#DejaVuSans-6f" transform="translate(377.050781 0.765625)"/>
     <use xlink:href="#DejaVuSans-6e" transform="translate(438.232422 0.765625)"/>
     <use xlink:href="#DejaVuSans-20" transform="translate(501.611328 0.765625)"/>
     <use xlink:href="#DejaVuSans-6f" transform="translate(533.398438 0.765625)"/>
     <use xlink:href="#DejaVuSans-6e" transform="translate(594.580078 0.765625)"/>
     <use xlink:href="#DejaVuSans-74" transform="translate(657.958984 0.765625)"/>
     <use xlink:href="#DejaVuSans-6f" transform="translate(697.167969 0.765625)"/>
     <use xlink:href="#DejaVuSans-20" transform="translate(758.349609 0.765625)"/>
     <use xlink:href="#DejaVuSans-49" transform="translate(790.136719 0.765625)"/>
     <use xlink:href="#DejaVuSans-6d" transform="translate(816.003906 0.765625)"/>
     <use xlink:href="#DejaVuSans-28" transform="translate(913.416016 0.765625)"/>
     <use xlink:href="#DejaVuSans-Oblique-46" transform="translate(952.429688 0.765625)"/>
     <use xlink:href="#DejaVuSans-31" transform="translate(1016.96599 39.046875) scale(0.7)"/>
     <use xlink:href="#DejaVuSans-2f" transform="translate(1061.502122 39.046875) scale(0.7)"/>
     <use xlink:href="#DejaVuSans-32" transform="translate(1082.548607 39.046875) scale(0.7)"/>
     <use xlink:href="#DejaVuSans-Oblique-4a" transform="translate(1129.819115 0.765625)"/>
     <use xlink:href="#DejaVuSans-Oblique-42" transform="translate(1159.311302 0.765625)"/>
     <use xlink:href="#DejaVuSans-29" transform="translate(1227.914818 0.765625)"/>
    </g>
   </g>
   <g id="text_5">
    <!-- orthogonal complement -->
    <g transform="translate(403.004325 102.576238) scale(0.09 -0.09)">
     <use xlink:href="#DejaVuSans-6f"/>
     <use xlink:href="#DejaVuSans-72" transform="translate(61.181641 0)"/>
     <use xlink:href="#DejaVuSans-74" transform="translate(102.294922 0)"/>
     <use xlink:href="#DejaVuSans-68" transform="translate(141.503906 0)"/>
     <use xlink:href="#DejaVuSans-6f" transform="translate(204.882812 0)"/>
     <use xlink:href="#DejaVuSans-67" transform="translate(266.064453 0)"/>
     <use xlink:href="#DejaVuSans-6f" transform="translate(329.541016 0)"/>
     <use xlink:href="#DejaVuSans-6e" transform="translate(390.722656 0)"/>
     <use xlink:href="#DejaVuSans-61" transform="translate(454.101562 0)"/>
     <use xlink:href="#DejaVuSans-6c" transform="translate(515.380859 0)"/>
     <use xlink:href="#DejaVuSans-20" transform="translate(543.164062 0)"/>
     <use xlink:href="#DejaVuSans-63" transform="translate(574.951172 0)"/>
     <use xlink:href="#DejaVuSans-6f" transform="translate(629.931641 0)"/>
     <use xlink:href="#DejaVuSans-6d" transform="translate(691.113281 0)"/>
     <use xlink:href="#DejaVuSans-70" transform="translate(788.525391 0)"/>
     <use xlink:href="#DejaVuSans-6c" transform="translate(852.001953 0)"/>
     <use xlink:href="#DejaVuSans-65" transform="translate(879.785156 0)"/>
     <use xlink:href="#DejaVuSans-6d" transform="translate(941.308594 0)"/>
     <use xlink:href="#DejaVuSans-65" transform="translate(1038.720703 0)"/>
     <use xlink:href="#DejaVuSans-6e" transform="translate(1100.244141 0)"/>
     <use xlink:href="#DejaVuSans-74" transform="translate(1163.623047 0)"/>
    </g>
   </g>
   <g id="text_6">
    <!-- $V_{\mathrm{access}}=\|P w\|^2$ -->
    <g transform="translate(424.687294 22.493933) scale(0.09 -0.09)">
     <defs>
      <path id="DejaVuSans-Oblique-56" d="M 1319 0 
L 500 4666 
L 1119 4666 
L 1797 653 
L 4063 4666 
L 4750 4666 
L 2053 0 
L 1319 0 
z
" transform="scale(0.015625)"/>
      <path id="DejaVuSans-2016" d="M 1344 4891 
L 1344 -1509 
L 813 -1509 
L 813 4891 
L 1344 4891 
z
M 2376 4891 
L 2376 -1509 
L 1845 -1509 
L 1845 4891 
L 2376 4891 
z
" transform="scale(0.015625)"/>
      <path id="DejaVuSans-Oblique-50" d="M 1081 4666 
L 2541 4666 
Q 3178 4666 3512 4369 
Q 3847 4072 3847 3500 
Q 3847 2731 3353 2303 
Q 2859 1875 1966 1875 
L 1172 1875 
L 806 0 
L 172 0 
L 1081 4666 
z
M 1613 4147 
L 1275 2394 
L 2069 2394 
Q 2606 2394 2893 2669 
Q 3181 2944 3181 3456 
Q 3181 3784 2986 3965 
Q 2791 4147 2438 4147 
L 1613 4147 
z
" transform="scale(0.015625)"/>
     </defs>
     <use xlink:href="#DejaVuSans-Oblique-56" transform="translate(0 0.765625)"/>
     <use xlink:href="#DejaVuSans-61" transform="translate(68.408203 -15.640625) scale(0.7)"/>
     <use xlink:href="#DejaVuSans-63" transform="translate(111.303711 -15.640625) scale(0.7)"/>
     <use xlink:href="#DejaVuSans-63" transform="translate(149.790039 -15.640625) scale(0.7)"/>
     <use xlink:href="#DejaVuSans-65" transform="translate(188.276367 -15.640625) scale(0.7)"/>
     <use xlink:href="#DejaVuSans-73" transform="translate(231.342773 -15.640625) scale(0.7)"/>
     <use xlink:href="#DejaVuSans-73" transform="translate(267.8125 -15.640625) scale(0.7)"/>
     <use xlink:href="#DejaVuSans-3d" transform="translate(326.499023 0.765625)"/>
     <use xlink:href="#DejaVuSans-2016" transform="translate(429.770508 0.765625)"/>
     <use xlink:href="#DejaVuSans-Oblique-50" transform="translate(479.770508 0.765625)"/>
     <use xlink:href="#DejaVuSans-Oblique-77" transform="translate(540.073242 0.765625)"/>
     <use xlink:href="#DejaVuSans-2016" transform="translate(621.860352 0.765625)"/>
     <use xlink:href="#DejaVuSans-32" transform="translate(672.817383 39.046875) scale(0.7)"/>
    </g>
   </g>
   <g id="text_7">
    <!-- $V_{\mathrm{inaccess}}=\|(I-P)w\|^2$ -->
    <g transform="translate(411.457294 138.343) scale(0.09 -0.09)">
     <defs>
      <path id="DejaVuSans-Oblique-49" d="M 1081 4666 
L 1716 4666 
L 806 0 
L 172 0 
L 1081 4666 
z
" transform="scale(0.015625)"/>
     </defs>
     <use xlink:href="#DejaVuSans-Oblique-56" transform="translate(0 0.765625)"/>
     <use xlink:href="#DejaVuSans-69" transform="translate(68.408203 -15.640625) scale(0.7)"/>
     <use xlink:href="#DejaVuSans-6e" transform="translate(87.856445 -15.640625) scale(0.7)"/>
     <use xlink:href="#DejaVuSans-61" transform="translate(132.22168 -15.640625) scale(0.7)"/>
     <use xlink:href="#DejaVuSans-63" transform="translate(175.117188 -15.640625) scale(0.7)"/>
     <use xlink:href="#DejaVuSans-63" transform="translate(213.603516 -15.640625) scale(0.7)"/>
     <use xlink:href="#DejaVuSans-65" transform="translate(252.089844 -15.640625) scale(0.7)"/>
     <use xlink:href="#DejaVuSans-73" transform="translate(295.15625 -15.640625) scale(0.7)"/>
     <use xlink:href="#DejaVuSans-73" transform="translate(331.625977 -15.640625) scale(0.7)"/>
     <use xlink:href="#DejaVuSans-3d" transform="translate(390.3125 0.765625)"/>
     <use xlink:href="#DejaVuSans-2016" transform="translate(493.583984 0.765625)"/>
     <use xlink:href="#DejaVuSans-28" transform="translate(543.583984 0.765625)"/>
     <use xlink:href="#DejaVuSans-Oblique-49" transform="translate(582.597656 0.765625)"/>
     <use xlink:href="#DejaVuSans-2212" transform="translate(631.572266 0.765625)"/>
     <use xlink:href="#DejaVuSans-Oblique-50" transform="translate(734.84375 0.765625)"/>
     <use xlink:href="#DejaVuSans-29" transform="translate(795.146484 0.765625)"/>
     <use xlink:href="#DejaVuSans-Oblique-77" transform="translate(834.160156 0.765625)"/>
     <use xlink:href="#DejaVuSans-2016" transform="translate(915.947266 0.765625)"/>
     <use xlink:href="#DejaVuSans-32" transform="translate(966.904297 39.046875) scale(0.7)"/>
    </g>
   </g>
   <g id="text_8">
    <!-- $\mathrm{Var}=V_{\mathrm{access}}+V_{\mathrm{inaccess}}$ -->
    <g transform="translate(237.027385 124.464771) scale(0.09 -0.09)">
     <defs>
      <path id="DejaVuSans-56" d="M 1831 0 
L 50 4666 
L 709 4666 
L 2188 738 
L 3669 4666 
L 4325 4666 
L 2547 0 
L 1831 0 
z
" transform="scale(0.015625)"/>
      <path id="DejaVuSans-2b" d="M 2944 4013 
L 2944 2272 
L 4684 2272 
L 4684 1741 
L 2944 1741 
L 2944 0 
L 2419 0 
L 2419 1741 
L 678 1741 
L 678 2272 
L 2419 2272 
L 2419 4013 
L 2944 4013 
z
" transform="scale(0.015625)"/>
     </defs>
     <use xlink:href="#DejaVuSans-56" transform="translate(0 0.09375)"/>
     <use xlink:href="#DejaVuSans-61" transform="translate(68.408203 0.09375)"/>
     <use xlink:href="#DejaVuSans-72" transform="translate(129.6875 0.09375)"/>
     <use xlink:href="#DejaVuSans-3d" transform="translate(190.283203 0.09375)"/>
     <use xlink:href="#DejaVuSans-Oblique-56" transform="translate(293.554688 0.09375)"/>
     <use xlink:href="#DejaVuSans-61" transform="translate(361.962891 -16.3125) scale(0.7)"/>
     <use xlink:href="#DejaVuSans-63" transform="translate(404.858398 -16.3125) scale(0.7)"/>
     <use xlink:href="#DejaVuSans-63" transform="translate(443.344727 -16.3125) scale(0.7)"/>
     <use xlink:href="#DejaVuSans-65" transform="translate(481.831055 -16.3125) scale(0.7)"/>
     <use xlink:href="#DejaVuSans-73" transform="translate(524.897461 -16.3125) scale(0.7)"/>
     <use xlink:href="#DejaVuSans-73" transform="translate(561.367188 -16.3125) scale(0.7)"/>
     <use xlink:href="#DejaVuSans-2b" transform="translate(620.053711 0.09375)"/>
     <use xlink:href="#DejaVuSans-Oblique-56" transform="translate(723.325195 0.09375)"/>
     <use xlink:href="#DejaVuSans-69" transform="translate(791.733398 -16.3125) scale(0.7)"/>
     <use xlink:href="#DejaVuSans-6e" transform="translate(811.181641 -16.3125) scale(0.7)"/>
     <use xlink:href="#DejaVuSans-61" transform="translate(855.546875 -16.3125) scale(0.7)"/>
     <use xlink:href="#DejaVuSans-63" transform="translate(898.442383 -16.3125) scale(0.7)"/>
     <use xlink:href="#DejaVuSans-63" transform="translate(936.928711 -16.3125) scale(0.7)"/>
     <use xlink:href="#DejaVuSans-65" transform="translate(975.415039 -16.3125) scale(0.7)"/>
     <use xlink:href="#DejaVuSans-73" transform="translate(1018.481445 -16.3125) scale(0.7)"/>
     <use xlink:href="#DejaVuSans-73" transform="translate(1054.951172 -16.3125) scale(0.7)"/>
    </g>
   </g>
  </g>
 </g>
 <defs>
  <clipPath id="p846f88e0e4">
   <rect x="7.2" y="7.2" width="524.52" height="144.144"/>
  </clipPath>
 </defs>
</svg>
